<svg id="visual" viewBox="0 0 960 540" width="960" height="540" xmlns="http://www.w3.org/2000/svg" xmlns:xlink="http://www.w3.org/1999/xlink" version="1.1"><rect x="0" y="0" width="960" height="540" fill="#000a11"></rect><path d="M0 74L22.8 65.2C45.7 56.3 91.3 38.7 137 30.5C182.7 22.3 228.3 23.7 274 24.5C319.7 25.3 365.3 25.7 411.2 31C457 36.3 503 46.7 548.8 52.8C594.7 59 640.3 61 686 62C731.7 63 777.3 63 823 64.2C868.7 65.3 914.3 67.7 937.2 68.8L960 70L960 541L937.2 541C914.3 541 868.7 541 823 541C777.3 541 731.7 541 686 541C640.3 541 594.7 541 548.8 541C503 541 457 541 411.2 541C365.3 541 319.7 541 274 541C228.3 541 182.7 541 137 541C91.3 541 45.7 541 22.8 541L0 541Z" fill="#19032c"></path><path d="M0 85L22.8 81.8C45.7 78.7 91.3 72.3 137 69C182.7 65.7 228.3 65.3 274 70C319.7 74.7 365.3 84.3 411.2 88.2C457 92 503 90 548.8 86.3C594.7 82.7 640.3 77.3 686 72.7C731.7 68 777.3 64 823 69.3C868.7 74.7 914.3 89.3 937.2 96.7L960 104L960 541L937.2 541C914.3 541 868.7 541 823 541C777.3 541 731.7 541 686 541C640.3 541 594.7 541 548.8 541C503 541 457 541 411.2 541C365.3 541 319.7 541 274 541C228.3 541 182.7 541 137 541C91.3 541 45.7 541 22.8 541L0 541Z" fill="#220730"></path><path d="M0 161L22.8 153.8C45.7 146.7 91.3 132.3 137 128.8C182.7 125.3 228.3 132.7 274 140.7C319.7 148.7 365.3 157.3 411.2 157C457 156.7 503 147.3 548.8 138.7C594.7 130 640.3 122 686 116.8C731.7 111.7 777.3 109.3 823 118.3C868.7 127.3 914.3 147.7 937.2 157.8L960 168L960 541L937.2 541C914.3 541 868.7 541 823 541C777.3 541 731.7 541 686 541C640.3 541 594.7 541 548.8 541C503 541 457 541 411.2 541C365.3 541 319.7 541 274 541C228.3 541 182.7 541 137 541C91.3 541 45.7 541 22.8 541L0 541Z" fill="#2d0733"></path><path d="M0 183L22.8 187.3C45.7 191.7 91.3 200.3 137 197.7C182.7 195 228.3 181 274 176.7C319.7 172.3 365.3 177.7 411.2 182C457 186.3 503 189.7 548.8 186.2C594.7 182.7 640.3 172.3 686 169.2C731.7 166 777.3 170 823 168C868.7 166 914.3 158 937.2 154L960 150L960 541L937.2 541C914.3 541 868.7 541 823 541C777.3 541 731.7 541 686 541C640.3 541 594.7 541 548.8 541C503 541 457 541 411.2 541C365.3 541 319.7 541 274 541C228.3 541 182.7 541 137 541C91.3 541 45.7 541 22.8 541L0 541Z" fill="#370735"></path><path d="M0 194L22.8 198.3C45.7 202.7 91.3 211.3 137 220.3C182.7 229.3 228.3 238.7 274 235.3C319.7 232 365.3 216 411.2 216.7C457 217.3 503 234.7 548.8 233.8C594.7 233 640.3 214 686 207.2C731.7 200.3 777.3 205.7 823 206.8C868.7 208 914.3 205 937.2 203.5L960 202L960 541L937.2 541C914.3 541 868.7 541 823 541C777.3 541 731.7 541 686 541C640.3 541 594.7 541 548.8 541C503 541 457 541 411.2 541C365.3 541 319.7 541 274 541C228.3 541 182.7 541 137 541C91.3 541 45.7 541 22.8 541L0 541Z" fill="#420636"></path><path d="M0 253L22.8 257.8C45.7 262.7 91.3 272.3 137 270C182.7 267.7 228.3 253.3 274 253.7C319.7 254 365.3 269 411.2 276.2C457 283.3 503 282.7 548.8 282.2C594.7 281.7 640.3 281.3 686 278.8C731.7 276.3 777.3 271.7 823 273C868.7 274.3 914.3 281.7 937.2 285.3L960 289L960 541L937.2 541C914.3 541 868.7 541 823 541C777.3 541 731.7 541 686 541C640.3 541 594.7 541 548.8 541C503 541 457 541 411.2 541C365.3 541 319.7 541 274 541C228.3 541 182.7 541 137 541C91.3 541 45.7 541 22.8 541L0 541Z" fill="#4d0537"></path><path d="M0 307L22.8 300.7C45.7 294.3 91.3 281.7 137 277.8C182.7 274 228.3 279 274 280.7C319.7 282.3 365.3 280.7 411.2 278.7C457 276.7 503 274.3 548.8 273.2C594.7 272 640.3 272 686 274.2C731.7 276.3 777.3 280.7 823 288.5C868.7 296.3 914.3 307.7 937.2 313.3L960 319L960 541L937.2 541C914.3 541 868.7 541 823 541C777.3 541 731.7 541 686 541C640.3 541 594.7 541 548.8 541C503 541 457 541 411.2 541C365.3 541 319.7 541 274 541C228.3 541 182.7 541 137 541C91.3 541 45.7 541 22.8 541L0 541Z" fill="#570437"></path><path d="M0 363L22.8 363.5C45.7 364 91.3 365 137 360C182.7 355 228.3 344 274 334.2C319.7 324.3 365.3 315.7 411.2 316C457 316.3 503 325.7 548.8 331.7C594.7 337.7 640.3 340.3 686 343.2C731.7 346 777.3 349 823 346C868.7 343 914.3 334 937.2 329.5L960 325L960 541L937.2 541C914.3 541 868.7 541 823 541C777.3 541 731.7 541 686 541C640.3 541 594.7 541 548.8 541C503 541 457 541 411.2 541C365.3 541 319.7 541 274 541C228.3 541 182.7 541 137 541C91.3 541 45.7 541 22.8 541L0 541Z" fill="#610336"></path><path d="M0 355L22.8 362.5C45.7 370 91.3 385 137 386.2C182.7 387.3 228.3 374.7 274 371.2C319.7 367.7 365.3 373.3 411.2 377.5C457 381.7 503 384.3 548.8 380.8C594.7 377.3 640.3 367.7 686 364.3C731.7 361 777.3 364 823 362.5C868.7 361 914.3 355 937.2 352L960 349L960 541L937.2 541C914.3 541 868.7 541 823 541C777.3 541 731.7 541 686 541C640.3 541 594.7 541 548.8 541C503 541 457 541 411.2 541C365.3 541 319.7 541 274 541C228.3 541 182.7 541 137 541C91.3 541 45.7 541 22.8 541L0 541Z" fill="#6b0435"></path><path d="M0 396L22.8 403C45.7 410 91.3 424 137 432C182.7 440 228.3 442 274 443.3C319.7 444.7 365.3 445.3 411.2 440.3C457 435.3 503 424.7 548.8 420.7C594.7 416.7 640.3 419.3 686 423.3C731.7 427.3 777.3 432.7 823 430.8C868.7 429 914.3 420 937.2 415.5L960 411L960 541L937.2 541C914.3 541 868.7 541 823 541C777.3 541 731.7 541 686 541C640.3 541 594.7 541 548.8 541C503 541 457 541 411.2 541C365.3 541 319.7 541 274 541C228.3 541 182.7 541 137 541C91.3 541 45.7 541 22.8 541L0 541Z" fill="#740732"></path><path d="M0 437L22.8 439.3C45.7 441.7 91.3 446.3 137 453.8C182.7 461.3 228.3 471.7 274 468.8C319.7 466 365.3 450 411.2 445C457 440 503 446 548.8 454.7C594.7 463.3 640.3 474.7 686 478.8C731.7 483 777.3 480 823 471.5C868.7 463 914.3 449 937.2 442L960 435L960 541L937.2 541C914.3 541 868.7 541 823 541C777.3 541 731.7 541 686 541C640.3 541 594.7 541 548.8 541C503 541 457 541 411.2 541C365.3 541 319.7 541 274 541C228.3 541 182.7 541 137 541C91.3 541 45.7 541 22.8 541L0 541Z" fill="#7c0d2f"></path><path d="M0 490L22.8 486.7C45.7 483.3 91.3 476.7 137 480.3C182.7 484 228.3 498 274 500.5C319.7 503 365.3 494 411.2 493.2C457 492.3 503 499.7 548.8 497.7C594.7 495.7 640.3 484.3 686 486.8C731.7 489.3 777.3 505.7 823 513.8C868.7 522 914.3 522 937.2 522L960 522L960 541L937.2 541C914.3 541 868.7 541 823 541C777.3 541 731.7 541 686 541C640.3 541 594.7 541 548.8 541C503 541 457 541 411.2 541C365.3 541 319.7 541 274 541C228.3 541 182.7 541 137 541C91.3 541 45.7 541 22.8 541L0 541Z" fill="#84142c"></path></svg>